<?xml version="1.0" encoding="UTF-8" standalone="no"?>
<!-- Created with Inkscape (http://www.inkscape.org/) -->

<svg
   xmlns:dc="http://purl.org/dc/elements/1.1/"
   xmlns:cc="http://creativecommons.org/ns#"
   xmlns:rdf="http://www.w3.org/1999/02/22-rdf-syntax-ns#"
   xmlns:svg="http://www.w3.org/2000/svg"
   xmlns="http://www.w3.org/2000/svg"
   xmlns:sodipodi="http://sodipodi.sourceforge.net/DTD/sodipodi-0.dtd"
   xmlns:inkscape="http://www.inkscape.org/namespaces/inkscape"
   id="svg8"
   version="1.1"
   viewBox="0 0 58.869785 39.508907"
   height="39.508907mm"
   width="58.869785mm"
   inkscape:version="0.92.3 (2405546, 2018-03-11)"
   sodipodi:docname="jam-logo.svg">
  <sodipodi:namedview
     inkscape:window-maximized="1"
     inkscape:window-y="-8"
     inkscape:window-x="-8"
     inkscape:window-height="1017"
     inkscape:window-width="1920"
     inkscape:bbox-nodes="true"
     inkscape:snap-bbox-midpoints="true"
     inkscape:snap-bbox="true"
     showgrid="false"
     inkscape:current-layer="layer1"
     inkscape:document-units="mm"
     inkscape:cy="-9.6147671"
     inkscape:cx="104.70663"
     inkscape:zoom="2.8"
     inkscape:pageshadow="2"
     inkscape:pageopacity="0.60392157"
     borderopacity="1.0"
     bordercolor="#666666"
     pagecolor="#ffffff"
     id="base"
     inkscape:snap-page="true"
     inkscape:pagecheckerboard="true"
     fit-margin-top="0"
     fit-margin-left="0"
     fit-margin-right="0"
     fit-margin-bottom="0" />
  <defs
     id="defs2" />
  <metadata
     id="metadata5">
    <rdf:RDF>
      <cc:Work
         rdf:about="">
        <dc:format>image/svg+xml</dc:format>
        <dc:type
           rdf:resource="http://purl.org/dc/dcmitype/StillImage" />
        <dc:title />
      </cc:Work>
    </rdf:RDF>
  </metadata>
  <g
     id="layer1"
     inkscape:groupmode="layer"
     inkscape:label="Layer 1"
     transform="translate(-0.04248736,-8.3923342e-6)">
    <path
       style="opacity:1;fill:#ffffff;fill-opacity:1;fill-rule:nonzero;stroke:none;stroke-width:18;stroke-linecap:round;stroke-linejoin:miter;stroke-miterlimit:4;stroke-dasharray:none;stroke-dashoffset:0;stroke-opacity:1;paint-order:markers fill stroke"
       d="M 32.697266 0 L 32.697266 111.42773 L 32.660156 111.42773 L 0 149.32422 L 222.5 149.32422 L 189.83984 111.42773 L 189.83984 0 L 32.697266 0 z "
       id="rect817"
       transform="matrix(0.26458333,0,0,0.26458333,0.04248736,8.3923342e-6)" />
    <g
       transform="matrix(0,-1.2940256,2.6766055,0,-188.77641,182.95406)"
       id="g834">
      <path
         inkscape:connector-curvature="0"
         id="rect827"
         d="m 117.97709,74.625811 c 0,0 0,13.830897 0,13.830897 0,0 -3.43422,1.232563 -3.43422,1.232563 0,0 0,-16.29602 0,-16.29602 0,0 3.43422,1.23256 3.43422,1.23256"
         style="opacity:1;fill:#e9e9e9;fill-opacity:1;fill-rule:nonzero;stroke:none;stroke-width:4.76249981;stroke-linecap:round;stroke-linejoin:miter;stroke-miterlimit:4;stroke-dasharray:none;stroke-dashoffset:0;stroke-opacity:1;paint-order:markers fill stroke" />
      <path
         inkscape:connector-curvature="0"
         id="rect829"
         d="m 114.30012,79.312872 c 0,0 0,4.456783 0,4.456783 0,0.379854 -0.18851,0.709598 -0.42703,0.73989 0,0 -1.87984,0.238742 -1.87984,0.238742 -0.28447,0.03613 -0.51818,-0.277645 -0.51818,-0.704267 0,0 0,-5.00551 0,-5.00551 0,-0.426623 0.23371,-0.740396 0.51818,-0.704269 0,0 1.87984,0.23874 1.87984,0.23874 0.23852,0.03029 0.42703,0.360037 0.42703,0.739891 0,0 0,0 0,0"
         style="opacity:1;fill:#e9e9e9;fill-opacity:1;fill-rule:nonzero;stroke:none;stroke-width:5.31345558;stroke-linecap:round;stroke-linejoin:miter;stroke-miterlimit:4;stroke-dasharray:none;stroke-dashoffset:0;stroke-opacity:1;paint-order:markers fill stroke" />
    </g>
    <rect
       style="opacity:1;fill:#000000;fill-opacity:1;fill-rule:nonzero;stroke:none;stroke-width:4.37393093;stroke-linecap:round;stroke-linejoin:miter;stroke-miterlimit:4;stroke-dasharray:none;stroke-dashoffset:0;stroke-opacity:1;paint-order:markers fill stroke"
       id="rect4720"
       width="38.185112"
       height="27.076717"
       x="10.389576"
       y="1.2027214" />
    <path
       style="opacity:1;fill:#ffd42a;fill-opacity:1;fill-rule:nonzero;stroke:none;stroke-width:4.76249981;stroke-linecap:round;stroke-linejoin:miter;stroke-miterlimit:4;stroke-dasharray:none;stroke-dashoffset:0;stroke-opacity:1;paint-order:markers fill stroke"
       id="path4722"
       sodipodi:type="arc"
       sodipodi:cx="24.655628"
       sodipodi:cy="-4.0758471"
       sodipodi:rx="5.1971726"
       sodipodi:ry="5.1971726"
       sodipodi:start="0"
       sodipodi:end="4.712389"
       d="M 29.852801,-4.0758471 A 5.1971726,5.1971726 0 0 1 26.6445,0.72571429 5.1971726,5.1971726 0 0 1 20.980672,-0.40089117 5.1971726,5.1971726 0 0 1 19.854067,-6.0647191 5.1971726,5.1971726 0 0 1 24.655628,-9.2730198 l 0,5.1971727 z"
       transform="rotate(45)" />
    <rect
       style="opacity:1;fill:#ffffff;fill-opacity:1;fill-rule:nonzero;stroke:none;stroke-width:4.76249981;stroke-linecap:round;stroke-linejoin:miter;stroke-miterlimit:4;stroke-dasharray:none;stroke-dashoffset:0;stroke-opacity:1;paint-order:markers fill stroke"
       id="rect4724"
       width="1.984375"
       height="1.984375"
       x="27.025295"
       y="13.796151" />
    <rect
       y="13.796151"
       x="33.828873"
       height="1.984375"
       width="1.984375"
       id="rect4726"
       style="opacity:1;fill:#ffffff;fill-opacity:1;fill-rule:nonzero;stroke:none;stroke-width:4.76249981;stroke-linecap:round;stroke-linejoin:miter;stroke-miterlimit:4;stroke-dasharray:none;stroke-dashoffset:0;stroke-opacity:1;paint-order:markers fill stroke" />
    <rect
       style="opacity:1;fill:#ffffff;fill-opacity:1;fill-rule:nonzero;stroke:none;stroke-width:4.76249981;stroke-linecap:round;stroke-linejoin:miter;stroke-miterlimit:4;stroke-dasharray:none;stroke-dashoffset:0;stroke-opacity:1;paint-order:markers fill stroke"
       id="rect4728"
       width="1.984375"
       height="1.984375"
       x="41.482887"
       y="13.796151" />
  </g>
</svg>
